<?xml version="1.0" encoding="UTF-8"?>
<!DOCTYPE svg PUBLIC "-//W3C//DTD SVG 1.1//EN" "http://www.w3.org/Graphics/SVG/1.1/DTD/svg11.dtd">
<svg xmlns="http://www.w3.org/2000/svg" version="1.1" width="5px" height="50px" style="shape-rendering:geometricPrecision; text-rendering:geometricPrecision; image-rendering:optimizeQuality; fill-rule:evenodd; clip-rule:evenodd" xmlns:xlink="http://www.w3.org/1999/xlink">
<g><path style="opacity:1" fill="#fac797" d="M -0.5,-0.5 C 1.16667,-0.5 2.83333,-0.5 4.5,-0.5C 4.5,0.5 4.5,1.5 4.5,2.5C 2.83333,2.5 1.16667,2.5 -0.5,2.5C -0.5,1.5 -0.5,0.5 -0.5,-0.5 Z"/></g>
<g><path style="opacity:1" fill="#f9ce9b" d="M -0.5,2.5 C 1.16667,2.5 2.83333,2.5 4.5,2.5C 4.5,3.16667 4.5,3.83333 4.5,4.5C 2.83333,4.5 1.16667,4.5 -0.5,4.5C -0.5,3.83333 -0.5,3.16667 -0.5,2.5 Z"/></g>
<g><path style="opacity:1" fill="#facda3" d="M -0.5,4.5 C 1.16667,4.5 2.83333,4.5 4.5,4.5C 4.5,5.83333 4.5,7.16667 4.5,8.5C 2.83333,8.5 1.16667,8.5 -0.5,8.5C -0.5,7.16667 -0.5,5.83333 -0.5,4.5 Z"/></g>
<g><path style="opacity:1" fill="#f9d4a7" d="M -0.5,8.5 C 1.16667,8.5 2.83333,8.5 4.5,8.5C 4.5,9.16667 4.5,9.83333 4.5,10.5C 2.83333,10.5 1.16667,10.5 -0.5,10.5C -0.5,9.83333 -0.5,9.16667 -0.5,8.5 Z"/></g>
<g><path style="opacity:1" fill="#f9d4ae" d="M -0.5,10.5 C 1.16667,10.5 2.83333,10.5 4.5,10.5C 4.5,11.8333 4.5,13.1667 4.5,14.5C 2.83333,14.5 1.16667,14.5 -0.5,14.5C -0.5,13.1667 -0.5,11.8333 -0.5,10.5 Z"/></g>
<g><path style="opacity:1" fill="#f9dab4" d="M -0.5,14.5 C 1.16667,14.5 2.83333,14.5 4.5,14.5C 4.5,15.5 4.5,16.5 4.5,17.5C 2.83333,17.5 1.16667,17.5 -0.5,17.5C -0.5,16.5 -0.5,15.5 -0.5,14.5 Z"/></g>
<g><path style="opacity:1" fill="#f9daba" d="M -0.5,17.5 C 1.16667,17.5 2.83333,17.5 4.5,17.5C 4.5,18.5 4.5,19.5 4.5,20.5C 2.83333,20.5 1.16667,20.5 -0.5,20.5C -0.5,19.5 -0.5,18.5 -0.5,17.5 Z"/></g>
<g><path style="opacity:1" fill="#f9e1c0" d="M -0.5,20.5 C 1.16667,20.5 2.83333,20.5 4.5,20.5C 4.5,21.5 4.5,22.5 4.5,23.5C 2.83333,23.5 1.16667,23.5 -0.5,23.5C -0.5,22.5 -0.5,21.5 -0.5,20.5 Z"/></g>
<g><path style="opacity:1" fill="#fae0c9" d="M -0.5,23.5 C 1.16667,23.5 2.83333,23.5 4.5,23.5C 4.5,24.8333 4.5,26.1667 4.5,27.5C 2.83333,27.5 1.16667,27.5 -0.5,27.5C -0.5,26.1667 -0.5,24.8333 -0.5,23.5 Z"/></g>
<g><path style="opacity:1" fill="#f9e7cd" d="M -0.5,27.5 C 1.16667,27.5 2.83333,27.5 4.5,27.5C 4.5,28.1667 4.5,28.8333 4.5,29.5C 2.83333,29.5 1.16667,29.5 -0.5,29.5C -0.5,28.8333 -0.5,28.1667 -0.5,27.5 Z"/></g>
<g><path style="opacity:1" fill="#fae6d5" d="M -0.5,29.5 C 1.16667,29.5 2.83333,29.5 4.5,29.5C 4.5,30.8333 4.5,32.1667 4.5,33.5C 2.83333,33.5 1.16667,33.5 -0.5,33.5C -0.5,32.1667 -0.5,30.8333 -0.5,29.5 Z"/></g>
<g><path style="opacity:1" fill="#f9edd9" d="M -0.5,33.5 C 1.16667,33.5 2.83333,33.5 4.5,33.5C 4.5,34.1667 4.5,34.8333 4.5,35.5C 2.83333,35.5 1.16667,35.5 -0.5,35.5C -0.5,34.8333 -0.5,34.1667 -0.5,33.5 Z"/></g>
<g><path style="opacity:1" fill="#f9ede0" d="M -0.5,35.5 C 1.16667,35.5 2.83333,35.5 4.5,35.5C 4.5,36.8333 4.5,38.1667 4.5,39.5C 2.83333,39.5 1.16667,39.5 -0.5,39.5C -0.5,38.1667 -0.5,36.8333 -0.5,35.5 Z"/></g>
<g><path style="opacity:1" fill="#f9f3e6" d="M -0.5,39.5 C 1.16667,39.5 2.83333,39.5 4.5,39.5C 4.5,40.5 4.5,41.5 4.5,42.5C 2.83333,42.5 1.16667,42.5 -0.5,42.5C -0.5,41.5 -0.5,40.5 -0.5,39.5 Z"/></g>
<g><path style="opacity:1" fill="#f9f3ec" d="M -0.5,42.5 C 1.16667,42.5 2.83333,42.5 4.5,42.5C 4.5,43.5 4.5,44.5 4.5,45.5C 2.83333,45.5 1.16667,45.5 -0.5,45.5C -0.5,44.5 -0.5,43.5 -0.5,42.5 Z"/></g>
<g><path style="opacity:1" fill="#faf9f4" d="M -0.5,45.5 C 1.16667,45.5 2.83333,45.5 4.5,45.5C 4.5,46.8333 4.5,48.1667 4.5,49.5C 2.83333,49.5 1.16667,49.5 -0.5,49.5C -0.5,48.1667 -0.5,46.8333 -0.5,45.5 Z"/></g>
</svg>
