<?xml version="1.0" encoding="UTF-8"?>
<!DOCTYPE svg PUBLIC "-//W3C//DTD SVG 1.1//EN" "http://www.w3.org/Graphics/SVG/1.1/DTD/svg11.dtd">
<svg xmlns="http://www.w3.org/2000/svg" version="1.1" width="5px" height="50px" style="shape-rendering:geometricPrecision; text-rendering:geometricPrecision; image-rendering:optimizeQuality; fill-rule:evenodd; clip-rule:evenodd" xmlns:xlink="http://www.w3.org/1999/xlink">
<g><path style="opacity:1" fill="#f9faf9" d="M -0.5,-0.5 C 1.16667,-0.5 2.83333,-0.5 4.5,-0.5C 4.5,0.5 4.5,1.5 4.5,2.5C 2.83333,2.5 1.16667,2.5 -0.5,2.5C -0.5,1.5 -0.5,0.5 -0.5,-0.5 Z"/></g>
<g><path style="opacity:1" fill="#f9faf2" d="M -0.5,2.5 C 1.16667,2.5 2.83333,2.5 4.5,2.5C 4.5,3.5 4.5,4.5 4.5,5.5C 2.83333,5.5 1.16667,5.5 -0.5,5.5C -0.5,4.5 -0.5,3.5 -0.5,2.5 Z"/></g>
<g><path style="opacity:1" fill="#f9f3ec" d="M -0.5,5.5 C 1.16667,5.5 2.83333,5.5 4.5,5.5C 4.5,6.5 4.5,7.5 4.5,8.5C 2.83333,8.5 1.16667,8.5 -0.5,8.5C -0.5,7.5 -0.5,6.5 -0.5,5.5 Z"/></g>
<g><path style="opacity:1" fill="#f9f3e6" d="M -0.5,8.5 C 1.16667,8.5 2.83333,8.5 4.5,8.5C 4.5,9.5 4.5,10.5 4.5,11.5C 2.83333,11.5 1.16667,11.5 -0.5,11.5C -0.5,10.5 -0.5,9.5 -0.5,8.5 Z"/></g>
<g><path style="opacity:1" fill="#f9ede0" d="M -0.5,11.5 C 1.16667,11.5 2.83333,11.5 4.5,11.5C 4.5,12.8333 4.5,14.1667 4.5,15.5C 2.83333,15.5 1.16667,15.5 -0.5,15.5C -0.5,14.1667 -0.5,12.8333 -0.5,11.5 Z"/></g>
<g><path style="opacity:1" fill="#f9edd9" d="M -0.5,15.5 C 1.16667,15.5 2.83333,15.5 4.5,15.5C 4.5,16.1667 4.5,16.8333 4.5,17.5C 2.83333,17.5 1.16667,17.5 -0.5,17.5C -0.5,16.8333 -0.5,16.1667 -0.5,15.5 Z"/></g>
<g><path style="opacity:1" fill="#fae6d5" d="M -0.5,17.5 C 1.16667,17.5 2.83333,17.5 4.5,17.5C 4.5,18.8333 4.5,20.1667 4.5,21.5C 2.83333,21.5 1.16667,21.5 -0.5,21.5C -0.5,20.1667 -0.5,18.8333 -0.5,17.5 Z"/></g>
<g><path style="opacity:1" fill="#f9e7cd" d="M -0.5,21.5 C 1.16667,21.5 2.83333,21.5 4.5,21.5C 4.5,22.1667 4.5,22.8333 4.5,23.5C 2.83333,23.5 1.16667,23.5 -0.5,23.5C -0.5,22.8333 -0.5,22.1667 -0.5,21.5 Z"/></g>
<g><path style="opacity:1" fill="#fae0c9" d="M -0.5,23.5 C 1.16667,23.5 2.83333,23.5 4.5,23.5C 4.5,24.8333 4.5,26.1667 4.5,27.5C 2.83333,27.5 1.16667,27.5 -0.5,27.5C -0.5,26.1667 -0.5,24.8333 -0.5,23.5 Z"/></g>
<g><path style="opacity:1" fill="#f9e1c0" d="M -0.5,27.5 C 1.16667,27.5 2.83333,27.5 4.5,27.5C 4.5,28.5 4.5,29.5 4.5,30.5C 2.83333,30.5 1.16667,30.5 -0.5,30.5C -0.5,29.5 -0.5,28.5 -0.5,27.5 Z"/></g>
<g><path style="opacity:1" fill="#f9daba" d="M -0.5,30.5 C 1.16667,30.5 2.83333,30.5 4.5,30.5C 4.5,31.5 4.5,32.5 4.5,33.5C 2.83333,33.5 1.16667,33.5 -0.5,33.5C -0.5,32.5 -0.5,31.5 -0.5,30.5 Z"/></g>
<g><path style="opacity:1" fill="#f9dab4" d="M -0.5,33.5 C 1.16667,33.5 2.83333,33.5 4.5,33.5C 4.5,34.5 4.5,35.5 4.5,36.5C 2.83333,36.5 1.16667,36.5 -0.5,36.5C -0.5,35.5 -0.5,34.5 -0.5,33.5 Z"/></g>
<g><path style="opacity:1" fill="#f9d4ae" d="M -0.5,36.5 C 1.16667,36.5 2.83333,36.5 4.5,36.5C 4.5,37.8333 4.5,39.1667 4.5,40.5C 2.83333,40.5 1.16667,40.5 -0.5,40.5C -0.5,39.1667 -0.5,37.8333 -0.5,36.5 Z"/></g>
<g><path style="opacity:1" fill="#f9d4a7" d="M -0.5,40.5 C 1.16667,40.5 2.83333,40.5 4.5,40.5C 4.5,41.1667 4.5,41.8333 4.5,42.5C 2.83333,42.5 1.16667,42.5 -0.5,42.5C -0.5,41.8333 -0.5,41.1667 -0.5,40.5 Z"/></g>
<g><path style="opacity:1" fill="#facda3" d="M -0.5,42.5 C 1.16667,42.5 2.83333,42.5 4.5,42.5C 4.5,43.8333 4.5,45.1667 4.5,46.5C 2.83333,46.5 1.16667,46.5 -0.5,46.5C -0.5,45.1667 -0.5,43.8333 -0.5,42.5 Z"/></g>
<g><path style="opacity:1" fill="#facc9c" d="M -0.5,46.5 C 1.16667,46.5 2.83333,46.5 4.5,46.5C 4.5,47.5 4.5,48.5 4.5,49.5C 2.83333,49.5 1.16667,49.5 -0.5,49.5C -0.5,48.5 -0.5,47.5 -0.5,46.5 Z"/></g>
</svg>
